<?xml version="1.0" standalone="no"?>
<!DOCTYPE svg PUBLIC "-//W3C//DTD SVG 20010904//EN"
 "http://www.w3.org/TR/2001/REC-SVG-20010904/DTD/svg10.dtd">
<svg version="1.0" xmlns="http://www.w3.org/2000/svg"
 width="100.000000pt" height="100.000000pt" viewBox="0 0 100.000000 100.000000"
 preserveAspectRatio="xMidYMid meet">
<metadata>
Created by potrace 1.14, written by Peter Selinger 2001-2017
</metadata>
<g transform="translate(0.000000,100.000000) scale(0.100000,-0.100000)"
fill="#000000" stroke="none">
<path d="M315 808 c-3 -7 -4 -153 -3 -323 l3 -310 190 0 190 0 0 320 0 320
-188 3 c-145 2 -189 0 -192 -10z m365 -38 l0 -30 -175 0 -175 0 0 30 0 30 175
0 175 0 0 -30z m0 -255 l0 -215 -175 0 -175 0 0 215 0 215 175 0 175 0 0 -215z
m0 -280 l0 -45 -175 0 -175 0 0 45 0 45 175 0 175 0 0 -45z"/>
</g>
</svg>
