<svg width="66px" height="59px" xmlns="http://www.w3.org/2000/svg" xmlns:xlink="http://www.w3.org/1999/xlink" version="1.1" x="0px" y="0px" viewBox="0 0 100 100" style="enable-background:new 0 0 100 100;" xml:space="preserve">
<g stroke="#ffffff" stroke-width="3" fill-rule="evenodd" fill="#044b8a">
    <path d="M49,68.3C49,53.8,60.8,42,75.3,42c6.6,0,12.6,2.4,17.3,6.5V26c0-2.9-2.3-5.2-5.2-5.2H67.3v-3.1c0-5.3-4.3-9.5-9.5-9.5H37  c-5.3,0-9.5,4.3-9.5,9.5v3.1H7.6c-2.9,0-5.2,2.3-5.2,5.2v56.6c0,2.9,2.3,5.2,5.2,5.2h50C52.3,83,49,76.1,49,68.3z M33.4,17.7  c0-2,1.7-3.7,3.7-3.7h20.7c2,0,3.7,1.7,3.7,3.7v3.1H33.4V17.7z"/>
    <path d="M75.3,90.9c-12.4,0-22.5-10.1-22.5-22.5s10.1-22.5,22.5-22.5s22.5,10.1,22.5,22.5S87.8,90.9,75.3,90.9z M75.3,49.6  C65,49.6,56.6,58,56.6,68.3S65,87,75.3,87S94,78.6,94,68.3S85.6,49.6,75.3,49.6z"/>
    <path d="M73.7,80c0,0.9,0.7,1.6,1.6,1.6c0.9,0,1.6-0.7,1.6-1.6v-0.9c2.7-0.7,4.7-3.1,4.7-6.1c0-2.9-2-5.4-4.7-6.1  v-6c1.3,0.5,2.4,1.5,2.8,1.9c0.6,0.6,1.6,0.6,2.3,0c0.6-0.6,0.6-1.6,0-2.3c-0.3-0.3-2.4-2.4-5.1-3v-0.9c0-0.9-0.7-1.6-1.6-1.6  s-1.6,0.7-1.6,1.6v1c-2.6,0.7-4.6,3.2-4.6,6c0,2.9,2,5.3,4.6,6v5.9c-1.2-0.6-2.3-1.8-2.8-2.2c-0.6-0.7-1.6-0.8-2.2-0.2  c-0.7,0.6-0.8,1.6-0.2,2.2c0.3,0.3,2.5,2.8,5.2,3.6L73.7,80L73.7,80z M78.5,73c0,1.1-0.6,2.1-1.5,2.7v-5.3  C77.8,70.9,78.5,71.9,78.5,73z M72.3,63.7c0-1.1,0.6-2,1.4-2.6v5.2C72.9,65.7,72.3,64.7,72.3,63.7z"/>
</g>
</svg>