<svg width="66px" height="59px" xmlns="http://www.w3.org/2000/svg" xmlns:xlink="http://www.w3.org/1999/xlink" version="1.1" x="0px" y="0px" viewBox="0 0 56 59" style="enable-background:new 0 0 64 64;" xml:space="preserve">
<style type="text/css">
	.st0{fill:none;}
</style>
<g stroke="#ffffff" stroke-width="1" fill-rule="evenodd" fill="#044b8a">
	<g>
		<g>
			<path d="M17.2,39.1c-3,0-5.4,2.4-5.4,5.4c0,3,2.4,5.4,5.4,5.4s5.4-2.4,5.4-5.4C22.7,41.6,20.2,39.1,17.2,39.1z M17.2,47.8     c-1.8,0-3.3-1.5-3.3-3.3c0-1.8,1.5-3.3,3.3-3.3s3.3,1.5,3.3,3.3C20.5,46.4,19,47.8,17.2,47.8z"/>
			<path d="M48.9,39.1c-3,0-5.4,2.4-5.4,5.4c0,3,2.4,5.4,5.4,5.4c3,0,5.4-2.4,5.4-5.4C54.4,41.6,51.9,39.1,48.9,39.1z M48.9,47.8     c-1.8,0-3.3-1.5-3.3-3.3c0-1.8,1.5-3.3,3.3-3.3s3.3,1.5,3.3,3.3C52.2,46.4,50.7,47.8,48.9,47.8z"/>
		</g>
		<path d="M58.1,37c-1.2-8.5-8.9-11.1-8.9-11.1H37.7c-13.4-0.8-12.2,1.8-12.2,1.8L21,32.3c-6.1-0.1-10,0.8-12.6,2    c-1.1,0.5-1.9,1.4-2.4,2.4h3v0.1c0,1-0.8,1.8-1.8,1.8H5.4c0,0.2,0,0.3,0,0.5v2.1c-0.6,0-1,0.5-0.8,1.1c0,0.1,0.1,0.3,0.1,0.4    c0.4,1.1,1.4,1.9,2.6,1.9h3.5c0-3.6,2.9-6.5,6.5-6.5c3.6,0,6.5,2.9,6.5,6.5h18.8c0-3.6,2.9-6.5,6.5-6.5s6.5,2.9,6.5,6.5h3.2    C60.9,38.4,58.1,37,58.1,37z M36.9,32.3H24l4.5-4.7h8.5V32.3z M40.2,32.3v-4.7h5.3c3.3,0,6,2.1,6,4.7H40.2z"/>
	</g>
	<path d="M16.7,31.4c1.1-0.1,2.4-0.1,3.7-0.1c0,0,0.1,0,0.1,0l4-4c0-0.2,0.1-0.5,0.3-0.7c0.3-0.4,0.8-0.9,2.1-1.3   c0.2-0.8,0.4-1.6,0.4-2.5c0-4.9-3.9-8.8-8.8-8.8c-4.9,0-8.8,3.9-8.8,8.8C9.7,27.1,12.7,30.6,16.7,31.4z M15.2,19.1   c0.2-0.4,0.5-0.7,0.9-1c0.4-0.3,0.8-0.4,1.3-0.6c0.2,0,0.3-0.1,0.5-0.1v-0.8H19v0.7c0.5,0,1,0,1.4,0.1c0.2,0,0.4,0.1,0.6,0.1   c0.3,0.1,0.6,0.4,0.6,0.8v0.9c0,0.3-0.3,0.5-0.6,0.4c-0.2-0.1-0.4-0.2-0.6-0.2c-0.2-0.1-0.4-0.1-0.7-0.1c-0.2,0-0.4,0-0.6,0   c0,0-0.1,0-0.1,0c-0.2,0-0.4,0-0.6,0.1c-0.2,0-0.3,0.1-0.5,0.2c0,0,0,0-0.1,0c-0.2,0.1-0.3,0.2-0.3,0.3c-0.1,0.1-0.1,0.3-0.1,0.4   c0,0.2,0,0.3,0.1,0.5c0.1,0.1,0.2,0.3,0.4,0.4c0,0,0,0,0,0c0.2,0.1,0.4,0.2,0.6,0.4c0.2,0.1,0.3,0.2,0.5,0.2c0.1,0,0.2,0.1,0.3,0.1   c0.4,0.2,0.8,0.4,1.1,0.6c0.3,0.2,0.6,0.4,0.9,0.7c0.2,0.2,0.4,0.5,0.5,0.8c0.1,0.3,0.2,0.7,0.2,1.1c0,0.6-0.1,1.1-0.3,1.5   c-0.2,0.4-0.5,0.7-0.9,1c-0.4,0.2-0.8,0.4-1.3,0.5c-0.2,0-0.3,0.1-0.5,0.1v0.8h-1.1v-0.7c-0.6,0-1.1,0-1.6-0.1   c-0.3-0.1-0.6-0.1-0.8-0.2c-0.3-0.1-0.5-0.4-0.5-0.7v-1c0-0.3,0.3-0.5,0.6-0.3c0.2,0.1,0.5,0.3,0.8,0.4c0.5,0.2,1,0.3,1.5,0.3   c0,0,0.1,0,0.1,0c0.3,0,0.5,0,0.7-0.1c0.2,0,0.3-0.1,0.5-0.2c0,0,0.1,0,0.1-0.1c0.1-0.1,0.3-0.2,0.3-0.3c0.1-0.1,0.1-0.3,0.1-0.4   c0-0.2-0.1-0.4-0.2-0.5c-0.1-0.1-0.2-0.3-0.4-0.4c0,0-0.1-0.1-0.1-0.1c-0.2-0.1-0.4-0.3-0.7-0.4c-0.1,0-0.2-0.1-0.3-0.1   c-0.2-0.1-0.4-0.2-0.6-0.3c-0.8-0.3-1.4-0.8-1.8-1.2c-0.4-0.5-0.6-1.1-0.6-1.8C14.9,19.9,15,19.5,15.2,19.1z"/>
</g>
</svg>